# xmcd
#
# Track frame offsets:
#	150
#	20844
#	41019
#	65382
#	86624
#	116813
#	135412
#	150135
#	170886
#	193443
#	214697
#	236905
#	255330
#	276403
#
# Disc length: 3936 seconds
# Revision: 2
# Processed by: cddbd v1.5.2PL0 Copyright (c) Steve Scherf et al.
# Submitted via: dBpowerAMP V12.0
#
DISCID=cd0f5e0e
DTITLE=Mr. Sipp - The Mississippi Blues Child
DYEAR=2015
DGENRE=Blues
TTITLE0=TMBC
TTITLE1=Jump The Broom
TTITLE2=In The Fire
TTITLE3=Hole In My Heart
TTITLE4=Say The Word
TTITLE5=Sipp Slide
TTITLE6=Nobody's Bisness
TTITLE7=Jackpot
TTITLE8=What Is Love
TTITLE9=V.I.P.
TTITLE10=Tonight
TTITLE11=Hold It In The Road
TTITLE12=Be Careful
TTITLE13=Too Much Water
EXTD=
EXTT0=
EXTT1=
EXTT2=
EXTT3=
EXTT4=
EXTT5=
EXTT6=
EXTT7=
EXTT8=
EXTT9=
EXTT10=
EXTT11=
EXTT12=
EXTT13=
PLAYORDER=
